# xmcd
#
# Track frame offsets:
#   150
#   12450
#   26200
#   42175
#   51103
#   63900
#   76453
#   88019
#   105055
#   122109
#   140322
#   152160
#   163656
#   173794
#   186845
#   200724
#   215564
#   228403
#   243467
#   260950
#
# Disc length: 3697 seconds
#
# Revision: 0
# Processed by: cddbd v1.5.2PL0 Copyright (c) Steve Scherf et al.
# Submitted via: GXTranscoder 2.24.2980
#
DISCID=1a0e6f14
DTITLE=Johnny Cash - Johnny Cash
DYEAR=1900
DGENRE=Country
TTITLE0=Folsom Prison Blues (Live at Folsom)
TTITLE1=Cocaine Blues (Live at Folsom)
TTITLE2=25 Minutes to go ( Live at Folsom)
TTITLE3=I got stripes (Live at Folsom)
TTITLE4=San Quentin (Live at San Quentin)
TTITLE5=The one on the right, is the one of the left
TTITLE6=I walk the line
TTITLE7=A boy named sue (Live)
TTITLE8=(ghost) Riders in the Sky
TTITLE9=One piece at time 
TTITLE10=Ring of fire
TTITLE11=big river
TTITLE12=Get Rythem
TTITLE13=Man in black
TTITLE14=Highwayman
TTITLE15=I´ve been everywhere
TTITLE16=Rusty cage
TTITLE17=Personal jesus
TTITLE18=One
TTITLE19=Hurt
EXTD=
EXTT0=
EXTT1=
EXTT2=
EXTT3=
EXTT4=
EXTT5=
EXTT6=
EXTT7=
EXTT8=
EXTT9=
EXTT10=
EXTT11=
EXTT12=
EXTT13=
EXTT14=
EXTT15=
EXTT16=
EXTT17=
EXTT18=
EXTT19=
PLAYORDER=
